<svg id="visual" viewBox="0 0 900 600" width="900" height="600" xmlns="http://www.w3.org/2000/svg" xmlns:xlink="http://www.w3.org/1999/xlink" version="1.1"><rect x="0" y="0" width="900" height="600" fill="#1C110C"></rect><path d="M0 559L82 564L164 554L245 560L327 570L409 563L491 559L573 587L655 561L736 554L818 560L900 577L900 601L818 601L736 601L655 601L573 601L491 601L409 601L327 601L245 601L164 601L82 601L0 601Z" fill="#b5774a"></path><path d="M0 584L82 589L164 578L245 589L327 582L409 581L491 573L573 578L655 577L736 583L818 587L900 580L900 601L818 601L736 601L655 601L573 601L491 601L409 601L327 601L245 601L164 601L82 601L0 601Z" fill="#bd8d4c"></path></svg>