<svg id="visual" viewBox="0 0 900 600" width="900" height="600" xmlns="http://www.w3.org/2000/svg" xmlns:xlink="http://www.w3.org/1999/xlink" version="1.1"><rect x="0" y="0" width="900" height="600" fill="#BD8D4C"></rect><path d="M0 576L10.7 572C21.3 568 42.7 560 64.2 559.8C85.7 559.7 107.3 567.3 128.8 570.5C150.3 573.7 171.7 572.3 193 568.5C214.3 564.7 235.7 558.3 257 556.7C278.3 555 299.7 558 321.2 561.3C342.7 564.7 364.3 568.3 385.8 567.3C407.3 566.3 428.7 560.7 450 562C471.3 563.3 492.7 571.7 514.2 571.3C535.7 571 557.3 562 578.8 560.7C600.3 559.3 621.7 565.7 643 567.3C664.3 569 685.7 566 707 563.3C728.3 560.7 749.7 558.3 771.2 559.8C792.7 561.3 814.3 566.7 835.8 571.7C857.3 576.7 878.7 581.3 889.3 583.7L900 586L900 601L889.3 601C878.7 601 857.3 601 835.8 601C814.3 601 792.7 601 771.2 601C749.7 601 728.3 601 707 601C685.7 601 664.3 601 643 601C621.7 601 600.3 601 578.8 601C557.3 601 535.7 601 514.2 601C492.7 601 471.3 601 450 601C428.7 601 407.3 601 385.8 601C364.3 601 342.7 601 321.2 601C299.7 601 278.3 601 257 601C235.7 601 214.3 601 193 601C171.7 601 150.3 601 128.8 601C107.3 601 85.7 601 64.2 601C42.7 601 21.3 601 10.7 601L0 601Z" fill="#070301"></path></svg>